<svg width="30px" height="50px" viewBox="0 0 30 50" version="1.1" xmlns="http://www.w3.org/2000/svg" xmlns:xlink="http://www.w3.org/1999/xlink">
    <g id="Page-1" stroke="none" stroke-width="1" fill="none" fill-rule="evenodd">
        <g id="Desktop-HD" transform="translate(-705.000000, -710.000000)" fill="#303030">
            <g id="Icn_Scroll" transform="translate(705.000000, 710.000000)">
                <path d="M17,50 L13,50 C5.8,50 0,44.2 0,37 L0,13 C0,5.8 5.8,0 13,0 L17,0 C24.2,0 30,5.8 30,13 L30,37 C30,44.2 24.2,50 17,50 L17,50 Z M13,2 C6.9,2 2,6.9 2,13 L2,37 C2,43.1 6.9,48 13,48 L17,48 C23.1,48 28,43.1 28,37 L28,13 C28,6.9 23.1,2 17,2 L13,2 L13,2 Z" id="Shape"></path>
                <rect id="Rectangle-path" x="14" y="8" width="2" height="7" rx="1"></rect>
            </g>
        </g>
    </g>
</svg>